<?xml version="1.0" encoding="utf-8"?>
<!-- Generator: Adobe Illustrator 28.2.0, SVG Export Plug-In . SVG Version: 6.00 Build 0)  -->
<svg version="1.1" id="Layer_1" xmlns="http://www.w3.org/2000/svg" xmlns:xlink="http://www.w3.org/1999/xlink" x="0px" y="0px"
	 viewBox="0 0 502.2 153.8" style="enable-background:new 0 0 502.2 153.8;" xml:space="preserve">
<style type="text/css">
	.st0{fill:#05587C;}
</style>
<g>
	<path class="st0" d="M34.4,135.6V79.3c0-21.7,14.4-34.9,33.8-34.9c19.1,0,34.1,13.6,34.1,33.5c0,22.8-18.8,34.4-34.7,34.4h-3.5
		c-2.3,0-3.5-0.9-4-3.2l-1.7-5.8c-0.9-2.9,0.6-4.3,3.2-4.3h4.9c14.1,0,22.2-9.8,22.2-21.4c0-12.1-9-20.2-19.9-20.2
		c-11.6,0-20.2,7.8-20.2,21.9v56c0,2.6-1.4,4-4,4H39C35.8,140,34.4,138.2,34.4,135.6z"/>
	<path class="st0" d="M134.3,45.8h5.5c2.6,0,4,1.4,4,4v4.9c0,2.6-1.4,4-4,4H136c-6.4,0-10.4,3.5-10.4,11.6v37.5c0,2.6-1.4,4-4,4
		h-5.5c-2.6,0-4-1.4-4-4V69.5C111.5,55.1,119.6,45.8,134.3,45.8z"/>
	<path class="st0" d="M145.6,79c0-19.3,14.1-34.7,34.9-34.7s34.9,15.3,34.9,34.7c0,19.6-14.1,34.7-34.9,34.7
		C159.7,113.7,145.6,98.7,145.6,79z M180.5,100.4c12.7,0,20.8-9.8,20.8-21.4s-8.1-21.4-20.8-21.4s-21.1,9.8-21.1,21.4
		S167.5,100.4,180.5,100.4z"/>
	<path class="st0" d="M224.4,88V35.1c0-2.6,1.4-4,4-4h5.5c2.6,0,4,1.4,4,4v11h15.9c2.6,0,4,1.4,4,4v4.9c0,2.6-1.4,4-4,4H238v27.1
		c0,9,4.3,12.7,12.4,12.7h4.9c2.9,0,4.3,2,3.5,4.6l-1.4,4.9c-0.6,2.3-2.3,3.5-4.6,3.5h-4.3C232.8,112.2,224.4,102.7,224.4,88z"/>
	<path class="st0" d="M263.1,79c0-19.3,14.1-34.7,34.9-34.7S333,59.7,333,79c0,19.6-14.1,34.7-34.9,34.7S263.1,98.7,263.1,79z
		 M298,100.4c12.7,0,20.8-9.8,20.8-21.4s-8.1-21.4-20.8-21.4c-12.7,0-21.1,9.8-21.1,21.4S285.3,100.4,298,100.4z"/>
	<path class="st0" d="M339.6,79c0-18.5,13.9-33.2,34.9-33.2h4.6c2.6,0,4,1.4,4,4v4.9c0,2.6-1.4,4-4,4h-4.6c-13,0-21.4,8.7-21.4,19.9
		s8.1,19.9,21.4,19.9h5.5c2.9,0,4.3,2,3.5,4.6l-1.4,4.9c-0.6,2.3-2.3,3.5-4.6,3.5h-2.9C353.2,112.2,339.6,97.8,339.6,79z"/>
	<path class="st0" d="M387.8,79c0-19.3,14.1-34.7,34.9-34.7c20.8,0,34.9,15.3,34.9,34.7c0,19.6-14.1,34.7-34.9,34.7
		C402.3,113.7,387.8,98.7,387.8,79z M422.8,100.4c12.7,0,20.8-9.8,20.8-21.4s-8.1-21.4-20.8-21.4s-21.1,9.8-21.1,21.4
		S410.1,100.4,422.8,100.4z"/>
	<path class="st0" d="M467.5,108.2V22.7c0-2.6,1.4-4,4-4h5.5c2.6,0,4,1.4,4,4v85.2c0,2.6-1.4,4-4,4h-5.5
		C469,112.2,467.5,110.8,467.5,108.2z"/>
</g>
</svg>
