<?xml version="1.0" encoding="utf-8"?>
<!-- Generator: Adobe Illustrator 28.2.0, SVG Export Plug-In . SVG Version: 6.00 Build 0)  -->
<svg version="1.1" id="Layer_1" xmlns="http://www.w3.org/2000/svg" xmlns:xlink="http://www.w3.org/1999/xlink" x="0px" y="0px"
	 viewBox="0 0 2000 2000" style="enable-background:new 0 0 2000 2000;" xml:space="preserve">
<style type="text/css">
	.st0{fill:#FFFFFF;}
</style>
<path class="st0" d="M1343,147.1c-56.6-15.2-116.3-23.2-178.2-23.2c-12.8,0-25.5,0.3-38.1,1.1c-135.5,7.3-259.8,53.4-360,126.3
	S590.2,423.9,550.4,538.8c-20,57.6-30.8,119.1-30.8,182.9c0,56.5,8.5,111.1,24.4,162.9l6.4-2.4l196.2-72.6
	c-7-28.3-10.6-57.7-10.6-87.9c0-52.1,10.8-102,30.8-147.6c58.6-136,196-234.8,360-248.1c12.6-1.2,25.4-1.7,38.1-1.7
	c63.7,0,123.9,12.7,178.2,35.9c148.1,62.6,250.8,201,250.8,361.5c0,160.5-102.8,298.9-250.8,361.5c0,0,0,0,0,0V733.5l-216.3,80.2
	V1164l-250.2,92.6l-109.8,40.6l0,0V947.1l-167.7,62l-48.6,18v350.3l-327.2,121.2v210.2l327.2-119.7V1938l216.3-80v-347.8l0,0
	l335.3-122.5l24.7-9.1l64.1-23.5l-64.1,72v297.7l216.3-80.2v-345.1l55.5-20.3l3.8-1.4c239.1-87.8,407.9-303.6,407.9-556.1
	C1810.2,448.9,1612.9,218.7,1343,147.1z"/>
</svg>
