<?xml version="1.0" encoding="UTF-8"?><svg id="Layer_1" xmlns="http://www.w3.org/2000/svg" viewBox="0 0 1587.06 1814.07"><defs><style>.cls-1{fill:#1086c1;stroke-width:0px;}</style></defs><path class="cls-1" d="M1119.89,23.19c-56.62-15.16-116.34-23.19-178.2-23.19-12.76,0-25.53.3-38.13,1.06-135.49,7.27-259.85,53.35-359.99,126.25-100.14,72.9-176.56,172.63-216.32,287.52-19.96,57.59-30.76,119.13-30.76,182.94,0,56.53,8.51,111.1,24.38,162.93l6.38-2.42,196.19-72.6c-7.04-28.34-10.64-57.75-10.64-87.91,0-52.14,10.8-102,30.76-147.62,58.58-135.95,196.03-234.77,359.99-248.11,12.6-1.21,25.36-1.67,38.13-1.67,63.65,0,123.87,12.73,178.2,35.92,148.09,62.6,250.85,200.97,250.85,361.48s-102.76,298.89-250.85,361.48c0,0-.01,0-.02,0v-349.67l-216.32,80.18v350.27l-250.17,92.6-109.8,40.62h-.02s0-350.11,0-350.11l-167.72,61.99-48.6,18.04v350.27L0,1374.69v210.22l327.24-119.73v348.89l216.32-80.03v-347.83h.02s335.28-122.47,335.28-122.47l24.71-9.09,64.14-23.49-64.14,71.99v297.67l216.32-80.18v-345.11l55.47-20.31,3.76-1.36c239.07-87.76,407.93-303.58,407.93-556.09,0-272.82-197.34-503.04-467.17-574.58Z"/></svg>