<?xml version="1.0" encoding="UTF-8"?><svg id="Layer_1" xmlns="http://www.w3.org/2000/svg" viewBox="0 0 446.6 282.1"><defs><style>.cls-1{fill:#0b85b5;stroke-width:0px;}</style></defs><path class="cls-1" d="M0,269.35v-56.3c0-21.7,14.4-34.9,33.8-34.9s34.1,13.6,34.1,33.5c0,22.8-18.8,34.4-34.7,34.4h-3.5c-2.3,0-3.5-.9-4-3.2l-1.7-5.8c-.9-2.9.6-4.3,3.2-4.3h4.9c14.1,0,22.2-9.8,22.2-21.4s-9-20.2-19.9-20.2c-11.6,0-20.2,7.8-20.2,21.9v56c0,2.6-1.4,4-4,4h-5.5c-3.3.6-4.7-1.1-4.7-3.7Z"/><path class="cls-1" d="M99.9,179.55h5.5c2.6,0,4,1.4,4,4v4.9c0,2.6-1.4,4-4,4h-3.8c-6.4,0-10.4,3.5-10.4,11.6v37.5c0,2.6-1.4,4-4,4h-5.5c-2.6,0-4-1.4-4-4v-38.4c-.6-14.4,7.5-23.6,22.2-23.6Z"/><path class="cls-1" d="M111.2,212.75c0-19.3,14.1-34.7,34.9-34.7s34.9,15.3,34.9,34.7-14.1,34.7-34.9,34.7-34.9-15.1-34.9-34.7ZM146.1,234.05c12.7,0,20.8-9.8,20.8-21.4s-8.1-21.4-20.8-21.4-21.1,9.8-21.1,21.4,8.1,21.4,21.1,21.4Z"/><path class="cls-1" d="M190,221.65v-52.8c0-2.6,1.4-4,4-4h5.5c2.6,0,4,1.4,4,4v11h15.9c2.6,0,4,1.4,4,4v4.9c0,2.6-1.4,4-4,4h-15.9v27.1c0,9,4.3,12.7,12.4,12.7h4.9c2.9,0,4.3,2,3.5,4.6l-1.4,4.9c-.6,2.3-2.3,3.5-4.6,3.5h-4.3c-15.6.4-24-9.1-24-23.9Z"/><path class="cls-1" d="M228.7,212.75c0-19.3,14.1-34.7,34.9-34.7s34.9,15.3,34.9,34.7-14.1,34.7-34.9,34.7-34.9-15.1-34.9-34.7ZM263.6,234.05c12.7,0,20.8-9.8,20.8-21.4s-8.1-21.4-20.8-21.4-21.1,9.8-21.1,21.4,8.4,21.4,21.1,21.4Z"/><path class="cls-1" d="M305.2,212.75c0-18.5,13.9-33.2,35-33.2h4.6c2.6,0,4,1.4,4,4v4.9c0,2.6-1.4,4-4,4h-4.6c-13,0-21.4,8.7-21.4,19.9s8.1,19.9,21.4,19.9h5.5c2.9,0,4.3,2,3.5,4.6l-1.4,4.9c-.6,2.3-2.3,3.5-4.6,3.5h-3c-21.4.7-35-13.8-35-32.5Z"/><path class="cls-1" d="M353.4,212.75c0-19.3,14.1-34.7,34.9-34.7s34.9,15.3,34.9,34.7-14.1,34.7-34.9,34.7c-20.4-.1-34.9-15.1-34.9-34.7ZM388.4,234.05c12.7,0,20.8-9.8,20.8-21.4s-8.1-21.4-20.8-21.4-21.1,9.8-21.1,21.4,8.4,21.4,21.1,21.4Z"/><path class="cls-1" d="M433.1,241.85v-85.4c0-2.6,1.4-4,4-4h5.5c2.6,0,4,1.4,4,4v85.2c0,2.6-1.4,4-4,4h-5.4c-2.6.3-4.1-1.2-4.1-3.8Z"/><path class="cls-1" d="M185.69,281.1v-23.4h4.9v10.1l-2-1.2c.9-.9,2-1.4,3.2-2s2.3-.9,3.8-.9c1.2,0,2.3.3,3.2.6.9.3,1.7,1.2,2.3,2,.6.9.9,2,.9,3.8v11h-4.9v-10.1c0-1.2-.3-2-.9-2.3-.6-.6-1.4-.9-2.3-.9-.6,0-1.2,0-1.4.3-.6.3-.9.3-1.2.6v12.4h-5.6Z"/><path class="cls-1" d="M213.39,281.7c-1.7,0-3.2-.3-4.6-1.2s-2.3-1.7-2.9-2.9-1.2-2.9-1.2-4.6c0-2.9.9-5.2,2.3-6.9,1.4-1.7,3.5-2.3,6.4-2.3,1.7,0,3.5.3,4.6,1.2,1.2.9,2,2,2.6,3.5.6,1.4.9,3.5.9,5.5h-12.7l-.6-3.2h9.2l-.9,1.4c0-1.7-.3-3.2-.9-3.8-.6-.9-1.2-1.2-2.3-1.2-.6,0-1.2.3-1.7.6-.6.3-.9.9-1.2,1.4-.3.6-.3,1.7-.3,2.9,0,1.7.3,2.9,1.2,3.8.9.9,2,1.2,3.8,1.2.6,0,1.2,0,1.7-.3.6-.3,1.2-.3,1.7-.6.6-.3.9-.3,1.4-.6v4.3c-.9.3-1.7.6-2.6.9-1.3.9-2.4.9-3.9.9Z"/><path class="cls-1" d="M230.99,281.7c-1.2,0-2,0-2.9-.3s-1.7-.6-2.3-.9-1.2-1.2-1.4-1.7c-.3-.9-.6-1.7-.6-2.9s.3-2,.6-2.6c.3-.9,1.2-1.4,2-1.7.9-.3,2-.6,3.5-.6.9,0,1.4,0,2.3.3s1.4.3,2,.6,1.2.6,1.4.9l.3,2.3c-.6-.3-.9-.6-1.7-.6-.6-.3-1.2-.3-2-.3-1.2,0-2,.3-2.3.6s-.9.9-.9,1.4c0,.3,0,.9.3,1.2s.6.6.9.9.9.3,1.2.3c1.2,0,2,0,2.3-.3.6-.3.6-.6.6-.9v-6.1c0-1.2-.3-1.7-.9-2.3s-1.4-.6-2.9-.6c-.9,0-2,.3-2.9.6s-1.7.9-2.3,1.2v-4.3c.6-.3,1.4-.6,2.6-.9s2.6-.6,4-.6h1.7c.6,0,1.2.3,2,.6.6.3,1.2.6,1.7,1.2.6.6.9.9,1.4,1.7.3.6.6,1.4.6,2.6v8.1c0,.9-.3,1.7-.9,2.3s-1.4,1.2-2.9,1.2c-1.3-.4-2.7-.4-4.5-.4Z"/><path class="cls-1" d="M248.69,281.1h-4.9v-23.1h4.9v23.1Z"/><path class="cls-1" d="M259.89,282c-2,0-3.5-.6-4.3-1.4s-1.4-2.3-1.4-4v-8.4h-2.6v-3.8h2.6v-4.6h5.2v4.6h3.8v3.8h-3.8v7.8c0,.6,0,.9.3,1.2s.6.3,1.2.3c.3,0,.6,0,1.2-.3.3,0,.9-.3.9-.6v4.3c-.6.3-.9.3-1.4.6-.8.5-1.1.5-1.7.5Z"/><path class="cls-1" d="M266.89,281.1v-23.4h4.9v10.1l-2-1.2c.9-.9,2-1.4,3.2-2s2.3-.9,3.8-.9c1.2,0,2.3.3,3.2.6.9.3,1.7,1.2,2.3,2s.9,2,.9,3.8v11h-4.9v-10.1c0-1.2-.3-2-.9-2.3-.6-.6-1.4-.9-2.3-.9-.6,0-1.2,0-1.4.3-.6.3-.9.3-1.2.6v12.4h-5.6Z"/><path class="cls-1" d="M260.79,1.87c-4.57-1.22-9.39-1.87-14.39-1.87-1.03,0-2.06.02-3.08.09-10.94.59-20.98,4.31-29.06,10.19s-14.25,13.94-17.46,23.21c-1.61,4.65-2.48,9.62-2.48,14.77,0,4.56.69,8.97,1.97,13.15l.52-.2,15.84-5.86c-.57-2.29-.86-4.66-.86-7.1,0-4.21.87-8.23,2.48-11.92,4.73-10.98,15.83-18.95,29.06-20.03,1.02-.1,2.05-.13,3.08-.13,5.14,0,10,1.03,14.39,2.9,11.95,5.05,20.25,16.22,20.25,29.18s-8.3,24.13-20.25,29.18c0,0,0,0,0,0v-28.23l-17.46,6.47v28.28l-20.2,7.48-8.86,3.28h0s0-28.26,0-28.26l-13.54,5-3.92,1.46v28.28l-26.42,9.79v16.97l26.42-9.67v28.17l17.46-6.46v-28.08h0s27.07-9.89,27.07-9.89l1.99-.73,5.18-1.9-5.18,5.81v24.03l17.46-6.47v-27.86l4.48-1.64.3-.11c19.3-7.08,32.93-24.51,32.93-44.89,0-22.02-15.93-40.61-37.71-46.39Z"/></svg>