<?xml version="1.0" encoding="utf-8"?>
<!-- Generator: Adobe Illustrator 28.2.0, SVG Export Plug-In . SVG Version: 6.00 Build 0)  -->
<svg version="1.1" id="Layer_1" xmlns="http://www.w3.org/2000/svg" xmlns:xlink="http://www.w3.org/1999/xlink" x="0px" y="0px"
	 viewBox="0 0 502.2 306.7" style="enable-background:new 0 0 502.2 306.7;" xml:space="preserve">
<style type="text/css">
	.st0{fill:#0B85B5;}
</style>
<g>
	<path class="st0" d="M27.8,283.7v-56.3c0-21.7,14.4-34.9,33.8-34.9c19.1,0,34.1,13.6,34.1,33.5c0,22.8-18.8,34.4-34.7,34.4h-3.5
		c-2.3,0-3.5-0.9-4-3.2l-1.7-5.8c-0.9-2.9,0.6-4.3,3.2-4.3h4.9c14.1,0,22.2-9.8,22.2-21.4c0-12.1-9-20.2-19.9-20.2
		c-11.6,0-20.2,7.8-20.2,21.9v56c0,2.6-1.4,4-4,4h-5.5C29.2,288,27.8,286.3,27.8,283.7z"/>
	<path class="st0" d="M127.7,193.9h5.5c2.6,0,4,1.4,4,4v4.9c0,2.6-1.4,4-4,4h-3.8c-6.4,0-10.4,3.5-10.4,11.6v37.5c0,2.6-1.4,4-4,4
		h-5.5c-2.6,0-4-1.4-4-4v-38.4C104.9,203.1,113,193.9,127.7,193.9z"/>
	<path class="st0" d="M139,227.1c0-19.3,14.1-34.7,34.9-34.7s34.9,15.3,34.9,34.7c0,19.6-14.1,34.7-34.9,34.7S139,246.7,139,227.1z
		 M173.9,248.4c12.7,0,20.8-9.8,20.8-21.4s-8.1-21.4-20.8-21.4s-21.1,9.8-21.1,21.4S160.9,248.4,173.9,248.4z"/>
	<path class="st0" d="M217.8,236v-52.8c0-2.6,1.4-4,4-4h5.5c2.6,0,4,1.4,4,4v11h15.9c2.6,0,4,1.4,4,4v4.9c0,2.6-1.4,4-4,4h-15.9
		v27.1c0,9,4.3,12.7,12.4,12.7h4.9c2.9,0,4.3,2,3.5,4.6l-1.4,4.9c-0.6,2.3-2.3,3.5-4.6,3.5h-4.3C226.2,260.3,217.8,250.8,217.8,236z
		"/>
	<path class="st0" d="M256.5,227.1c0-19.3,14.1-34.7,34.9-34.7s34.9,15.3,34.9,34.7c0,19.6-14.1,34.7-34.9,34.7
		S256.5,246.7,256.5,227.1z M291.4,248.4c12.7,0,20.8-9.8,20.8-21.4s-8.1-21.4-20.8-21.4c-12.7,0-21.1,9.8-21.1,21.4
		S278.7,248.4,291.4,248.4z"/>
	<path class="st0" d="M333,227.1c0-18.5,13.9-33.2,35-33.2h4.6c2.6,0,4,1.4,4,4v4.9c0,2.6-1.4,4-4,4H368c-13,0-21.4,8.7-21.4,19.9
		c0,11.2,8.1,19.9,21.4,19.9h5.5c2.9,0,4.3,2,3.5,4.6l-1.4,4.9c-0.6,2.3-2.3,3.5-4.6,3.5h-3C346.6,260.3,333,245.8,333,227.1z"/>
	<path class="st0" d="M381.2,227.1c0-19.3,14.1-34.7,34.9-34.7s34.9,15.3,34.9,34.7c0,19.6-14.1,34.7-34.9,34.7
		C395.7,261.7,381.2,246.7,381.2,227.1z M416.2,248.4c12.7,0,20.8-9.8,20.8-21.4s-8.1-21.4-20.8-21.4c-12.7,0-21.1,9.8-21.1,21.4
		S403.5,248.4,416.2,248.4z"/>
	<path class="st0" d="M460.9,256.2v-85.4c0-2.6,1.4-4,4-4h5.5c2.6,0,4,1.4,4,4V256c0,2.6-1.4,4-4,4H465
		C462.4,260.3,460.9,258.8,460.9,256.2z"/>
</g>
<g>
	<g>
		<path class="st0" d="M213.5,295.5V272h4.9v10.1l-2-1.2c0.9-0.9,2-1.4,3.2-2c1.2-0.6,2.3-0.9,3.8-0.9c1.2,0,2.3,0.3,3.2,0.6
			c0.9,0.3,1.7,1.2,2.3,2c0.6,0.9,0.9,2,0.9,3.8v11h-4.9v-10.1c0-1.2-0.3-2-0.9-2.3c-0.6-0.6-1.4-0.9-2.3-0.9c-0.6,0-1.2,0-1.4,0.3
			c-0.6,0.3-0.9,0.3-1.2,0.6v12.4H213.5z"/>
		<path class="st0" d="M241.2,296c-1.7,0-3.2-0.3-4.6-1.2s-2.3-1.7-2.9-2.9s-1.2-2.9-1.2-4.6c0-2.9,0.9-5.2,2.3-6.9s3.5-2.3,6.4-2.3
			c1.7,0,3.5,0.3,4.6,1.2c1.2,0.9,2,2,2.6,3.5c0.6,1.4,0.9,3.5,0.9,5.5h-12.7l-0.6-3.2h9.2l-0.9,1.4c0-1.7-0.3-3.2-0.9-3.8
			c-0.6-0.9-1.2-1.2-2.3-1.2c-0.6,0-1.2,0.3-1.7,0.6c-0.6,0.3-0.9,0.9-1.2,1.4c-0.3,0.6-0.3,1.7-0.3,2.9c0,1.7,0.3,2.9,1.2,3.8
			c0.9,0.9,2,1.2,3.8,1.2c0.6,0,1.2,0,1.7-0.3c0.6-0.3,1.2-0.3,1.7-0.6c0.6-0.3,0.9-0.3,1.4-0.6v4.3c-0.9,0.3-1.7,0.6-2.6,0.9
			C243.8,296,242.7,296,241.2,296z"/>
		<path class="st0" d="M258.8,296c-1.2,0-2,0-2.9-0.3s-1.7-0.6-2.3-0.9c-0.6-0.3-1.2-1.2-1.4-1.7c-0.3-0.9-0.6-1.7-0.6-2.9
			c0-1.2,0.3-2,0.6-2.6c0.3-0.9,1.2-1.4,2-1.7c0.9-0.3,2-0.6,3.5-0.6c0.9,0,1.4,0,2.3,0.3c0.9,0.3,1.4,0.3,2,0.6
			c0.6,0.3,1.2,0.6,1.4,0.9l0.3,2.3c-0.6-0.3-0.9-0.6-1.7-0.6c-0.6-0.3-1.2-0.3-2-0.3c-1.2,0-2,0.3-2.3,0.6
			c-0.3,0.3-0.9,0.9-0.9,1.4c0,0.3,0,0.9,0.3,1.2s0.6,0.6,0.9,0.9s0.9,0.3,1.2,0.3c1.2,0,2,0,2.3-0.3c0.6-0.3,0.6-0.6,0.6-0.9v-6.1
			c0-1.2-0.3-1.7-0.9-2.3c-0.6-0.6-1.4-0.6-2.9-0.6c-0.9,0-2,0.3-2.9,0.6c-0.9,0.3-1.7,0.9-2.3,1.2v-4.3c0.6-0.3,1.4-0.6,2.6-0.9
			c1.2-0.3,2.6-0.6,4-0.6c0.6,0,1.2,0,1.7,0c0.6,0,1.2,0.3,2,0.6c0.6,0.3,1.2,0.6,1.7,1.2c0.6,0.6,0.9,0.9,1.4,1.7
			c0.3,0.6,0.6,1.4,0.6,2.6v8.1c0,0.9-0.3,1.7-0.9,2.3s-1.4,1.2-2.9,1.2C262,296,260.6,296,258.8,296z"/>
		<path class="st0" d="M276.5,295.5h-4.9v-23.1h4.9V295.5z"/>
		<path class="st0" d="M287.7,296.4c-2,0-3.5-0.6-4.3-1.4s-1.4-2.3-1.4-4v-8.4h-2.6v-3.8h2.6v-4.6h5.2v4.6h3.8v3.8h-3.8v7.8
			c0,0.6,0,0.9,0.3,1.2s0.6,0.3,1.2,0.3c0.3,0,0.6,0,1.2-0.3c0.3,0,0.9-0.3,0.9-0.6v4.3c-0.6,0.3-0.9,0.3-1.4,0.6
			C288.6,296.4,288.3,296.4,287.7,296.4z"/>
		<path class="st0" d="M294.7,295.5V272h4.9v10.1l-2-1.2c0.9-0.9,2-1.4,3.2-2c1.2-0.6,2.3-0.9,3.8-0.9c1.2,0,2.3,0.3,3.2,0.6
			c0.9,0.3,1.7,1.2,2.3,2s0.9,2,0.9,3.8v11h-4.9v-10.1c0-1.2-0.3-2-0.9-2.3c-0.6-0.6-1.4-0.9-2.3-0.9c-0.6,0-1.2,0-1.4,0.3
			c-0.6,0.3-0.9,0.3-1.2,0.6v12.4H294.7z"/>
	</g>
</g>
<path class="st0" d="M288.6,16.2c-4.6-1.2-9.4-1.9-14.4-1.9c-1,0-2.1,0-3.1,0.1c-10.9,0.6-21,4.3-29.1,10.2s-14.3,13.9-17.5,23.2
	c-1.6,4.6-2.5,9.6-2.5,14.8c0,4.6,0.7,9,2,13.2l0.5-0.2l15.8-5.9c-0.6-2.3-0.9-4.7-0.9-7.1c0-4.2,0.9-8.2,2.5-11.9
	c4.7-11,15.8-19,29.1-20c1-0.1,2-0.1,3.1-0.1c5.1,0,10,1,14.4,2.9c12,5.1,20.3,16.2,20.3,29.2c0,13-8.3,24.1-20.3,29.2c0,0,0,0,0,0
	V63.6L271.1,70v28.3l-20.2,7.5l-8.9,3.3l0,0V80.8l-13.5,5l-3.9,1.5v28.3l-26.4,9.8v17l26.4-9.7v28.2l17.5-6.5v-28.1l0,0l27.1-9.9
	l2-0.7l5.2-1.9l-5.2,5.8v24l17.5-6.5v-27.9l4.5-1.6l0.3-0.1c19.3-7.1,32.9-24.5,32.9-44.9C326.3,40.6,310.4,22,288.6,16.2z"/>
</svg>
