<?xml version="1.0" encoding="UTF-8"?><svg id="Layer_1" xmlns="http://www.w3.org/2000/svg" viewBox="0 0 449.04 129.95"><defs><style>.cls-1{fill:#fff;stroke-width:0px;}</style></defs><path class="cls-1" d="M0,116.95v-56.31C0,38.98,14.44,25.7,33.79,25.7s34.08,13.57,34.08,33.5c0,22.81-18.77,34.36-34.65,34.36h-3.47c-2.31,0-3.47-.87-4.04-3.18l-1.73-5.78c-.87-2.89.58-4.33,3.18-4.33h4.91c14.15,0,22.24-9.82,22.24-21.37,0-12.13-8.95-20.21-19.93-20.21-11.55,0-20.21,7.8-20.21,21.95v56.02c0,2.6-1.44,4.04-4.04,4.04h-5.49c-3.18.58-4.62-1.16-4.62-3.75Z"/><path class="cls-1" d="M99.92,27.14h5.49c2.6,0,4.04,1.44,4.04,4.04v4.91c0,2.6-1.44,4.04-4.04,4.04h-3.75c-6.35,0-10.4,3.47-10.4,11.55v37.54c0,2.6-1.44,4.04-4.04,4.04h-5.49c-2.6,0-4.04-1.44-4.04-4.04v-38.41c-.58-14.44,7.51-23.68,22.24-23.68Z"/><path class="cls-1" d="M111.18,60.35c0-19.35,14.15-34.65,34.94-34.65s34.94,15.3,34.94,34.65-14.15,34.65-34.94,34.65-34.94-15.02-34.94-34.65ZM146.12,81.72c12.71,0,20.79-9.82,20.79-21.37s-8.09-21.37-20.79-21.37-21.08,9.82-21.08,21.37,8.09,21.37,21.08,21.37Z"/><path class="cls-1" d="M190.01,69.31V16.46c0-2.6,1.44-4.04,4.04-4.04h5.49c2.6,0,4.04,1.44,4.04,4.04v10.97h15.88c2.6,0,4.04,1.44,4.04,4.04v4.91c0,2.6-1.44,4.04-4.04,4.04h-15.88v27.14c0,8.95,4.33,12.71,12.42,12.71h4.91c2.89,0,4.33,2.02,3.47,4.62l-1.44,4.91c-.58,2.31-2.31,3.47-4.62,3.47h-4.33c-15.59.29-23.97-9.24-23.97-23.97Z"/><path class="cls-1" d="M228.71,60.35c0-19.35,14.15-34.65,34.94-34.65s34.94,15.3,34.94,34.65-14.15,34.65-34.94,34.65-34.94-15.02-34.94-34.65ZM263.65,81.72c12.71,0,20.79-9.82,20.79-21.37s-8.09-21.37-20.79-21.37-21.08,9.82-21.08,21.37,8.37,21.37,21.08,21.37Z"/><path class="cls-1" d="M305.23,60.35c0-18.48,13.86-33.21,34.94-33.21h4.62c2.6,0,4.04,1.44,4.04,4.04v4.91c0,2.6-1.44,4.04-4.04,4.04h-4.62c-12.99,0-21.37,8.66-21.37,19.93s8.09,19.93,21.37,19.93h5.49c2.89,0,4.33,2.02,3.47,4.62l-1.44,4.91c-.58,2.31-2.31,3.47-4.62,3.47h-2.89c-21.37.58-34.94-13.86-34.94-32.63Z"/><path class="cls-1" d="M353.46,60.35c0-19.35,14.15-34.65,34.94-34.65s34.94,15.3,34.94,34.65-14.15,34.65-34.94,34.65-34.94-15.02-34.94-34.65ZM388.4,81.72c12.71,0,20.79-9.82,20.79-21.37s-8.09-21.37-20.79-21.37-21.08,9.82-21.08,21.37,8.37,21.37,21.08,21.37Z"/><path class="cls-1" d="M433.16,89.52V4.04c0-2.6,1.44-4.04,4.04-4.04h5.49c2.6,0,4.04,1.44,4.04,4.04v85.19c0,2.6-1.44,4.04-4.04,4.04h-5.49c-2.6.29-4.04-1.16-4.04-3.75Z"/><path class="cls-1" d="M351.73,129.08v-23.39h4.91v10.11l-2.02-1.16c.87-.87,2.02-1.44,3.18-2.02,1.16-.58,2.31-.87,3.75-.87,1.16,0,2.31.29,3.18.58.87.29,1.73,1.16,2.31,2.02s.87,2.02.87,3.75v10.97h-4.91v-10.11c0-1.16-.29-2.02-.87-2.31-.58-.58-1.44-.87-2.31-.87-.58,0-1.16,0-1.44.29-.58.29-.87.29-1.16.58v12.42h-5.49Z"/><path class="cls-1" d="M379.45,129.66c-1.73,0-3.18-.29-4.62-1.16s-2.31-1.73-2.89-2.89-1.16-2.89-1.16-4.62c0-2.89.87-5.2,2.31-6.93,1.44-1.73,3.47-2.31,6.35-2.31,1.73,0,3.47.29,4.62,1.16,1.16.87,2.02,2.02,2.6,3.47s.87,3.47.87,5.49h-12.71l-.58-3.18h9.24l-.87,1.44c0-1.73-.29-3.18-.87-3.75-.58-.87-1.16-1.16-2.31-1.16-.58,0-1.16.29-1.73.58-.58.29-.87.87-1.16,1.44-.29.58-.29,1.73-.29,2.89,0,1.73.29,2.89,1.16,3.75s2.02,1.16,3.75,1.16c.58,0,1.16,0,1.73-.29s1.16-.29,1.73-.58c.58-.29.87-.29,1.44-.58v4.33c-.87.29-1.73.58-2.6.87-1.44.87-2.6.87-4.04.87Z"/><path class="cls-1" d="M397.06,129.66c-1.16,0-2.02,0-2.89-.29s-1.73-.58-2.31-.87-1.16-1.16-1.44-1.73c-.29-.87-.58-1.73-.58-2.89s.29-2.02.58-2.6c.29-.87,1.16-1.44,2.02-1.73s2.02-.58,3.47-.58c.87,0,1.44,0,2.31.29s1.44.29,2.02.58c.58.29,1.16.58,1.44.87l.29,2.31c-.58-.29-.87-.58-1.73-.58-.58-.29-1.16-.29-2.02-.29-1.16,0-2.02.29-2.31.58s-.87.87-.87,1.44c0,.29,0,.87.29,1.16s.58.58.87.87.87.29,1.16.29c1.16,0,2.02,0,2.31-.29.58-.29.58-.58.58-.87v-6.06c0-1.16-.29-1.73-.87-2.31s-1.44-.58-2.89-.58c-.87,0-2.02.29-2.89.58-.87.29-1.73.87-2.31,1.16v-4.33c.58-.29,1.44-.58,2.6-.87s2.6-.58,4.04-.58h1.73c.58,0,1.16.29,2.02.58.58.29,1.16.58,1.73,1.16.58.58.87.87,1.44,1.73.29.58.58,1.44.58,2.6v8.09c0,.87-.29,1.73-.87,2.31s-1.44,1.16-2.89,1.16c-1.44-.29-2.89-.29-4.62-.29Z"/><path class="cls-1" d="M414.68,129.08h-4.91v-23.1h4.91v23.1Z"/><path class="cls-1" d="M425.94,129.95c-2.02,0-3.47-.58-4.33-1.44s-1.44-2.31-1.44-4.04v-8.37h-2.6v-3.75h2.6v-4.62h5.2v4.62h3.75v3.75h-3.75v7.8c0,.58,0,.87.29,1.16.29.29.58.29,1.16.29.29,0,.58,0,1.16-.29.29,0,.87-.29.87-.58v4.33c-.58.29-.87.29-1.44.58-.58.58-.87.58-1.44.58Z"/><path class="cls-1" d="M432.87,129.08v-23.39h4.91v10.11l-2.02-1.16c.87-.87,2.02-1.44,3.18-2.02,1.16-.58,2.31-.87,3.75-.87,1.16,0,2.31.29,3.18.58.87.29,1.73,1.16,2.31,2.02s.87,2.02.87,3.75v10.97h-4.91v-10.11c0-1.16-.29-2.02-.87-2.31-.58-.58-1.44-.87-2.31-.87-.58,0-1.16,0-1.44.29-.58.29-.87.29-1.16.58v12.42h-5.49Z"/></svg>